inDegrees=yes
name=ik_S57_A01_T02
DataType=double
version=3
OpenSimVersion=4.3-2021-08-27-4bc7ad9
endheader
time	pelvis_tilt	pelvis_list	pelvis_rotation	pelvis_tx	pelvis_ty	pelvis_tz	hip_flexion_r	hip_adduction_r	hip_rotation_r	knee_angle_r	knee_angle_r_beta	ankle_angle_r	subtalar_angle_r	mtp_angle_r	hip_flexion_l	hip_adduction_l	hip_rotation_l	knee_angle_l	knee_angle_l_beta	ankle_angle_l	subtalar_angle_l	mtp_angle_l	lumbar_extension	lumbar_bending	lumbar_rotation	arm_flex_r	arm_add_r	arm_rot_r	elbow_flex_r	pro_sup_r	wrist_flex_r	wrist_dev_r	arm_flex_l	arm_add_l	arm_rot_l	elbow_flex_l	pro_sup_l	wrist_flex_l	wrist_dev_l
26.41999999999953	-2.409085436535821	-2.672827541158761	-20.15700717861615	0	0.9399999999999999	0	15.41521799951856	-4.264110766133436	2.895771307544775	4.981581868540295	0.08694500556367947	0	0	0	0.5455991007056947	7.782272941083346	12.41163952448245	7.981148019349939	0.1392973110266805	0	0	0	0	0	0	43.00851855780451	-43.00851855780451	4.978273557416108	84.70283262635965	85.02172671606111	0	0	43.00851855780451	-43.00851855780451	4.978273557416108	84.70283262635965	85.02172671605666	0	0
26.43999999999953	-2.473360559612657	-2.751898556728461	-17.95037768372644	0	0.9399999999999999	0	15.46270370616856	-4.59014596109451	1.250372196604649	5.149558672014395	0.08987675385127797	0	0	0	0.2635934451310574	7.241117159656185	12.91916751892272	8.351742541483345	0.1457654056277635	0	0	0	0	0	0	43.01486414350508	-43.01486414350508	4.978393127620731	84.7044680873817	85.02160714586094	0	0	43.01486414350508	-43.01486414350508	4.978393127620731	84.7044680873817	85.02160714585651	0	0
26.45999999999952	-2.481926393879044	-2.754132158298149	-15.79310617803541	0	0.9399999999999999	0	15.48346060094553	-4.582613493049253	4.887522913985689	4.621943171331344	0.08066812617980033	0	0	0	-0.1351369402714796	6.718158775054355	13.32751168170221	8.478131322973297	0.1479713060023468	0	0	0	0	0	0	43.01872203993323	-43.01872203993323	4.978466469137957	84.70547124051606	85.0215338043464	0	0	43.01872203993323	-43.01872203993323	4.978466469137957	84.70547124051606	85.02153380434198	0	0
26.47999999999952	-2.479876965889604	-2.761959650892447	-15.75035314259536	0	0.9399999999999999	0	15.32847590245843	-4.090025758819163	7.015649090295565	3.930304656716269	0.06859675686616436	0	0	0	-0.268824564435698	6.181311496005049	11.64115191530488	8.722408674326863	0.1522347500715175	0	0	0	0	0	0	43.02081519521682	-43.02081519521682	4.97850894176334	84.70605217519095	85.02149133172264	0	0	43.02081519521682	-43.02081519521682	4.97850894176334	84.70605217519095	85.02149133171821	0	0
26.49999999999952	-2.529004855712518	-2.443544934581653	-8.805851955329835	0	0.9399999999999999	0	14.44397831989091	-5.425105576038881	2.128863274200341	3.206202646892525	0.0559587926744317	0	0	0	-0.8976104469060382	5.961415198398378	17.01615483956247	9.034831833567807	0.1576875628597546	0	0	0	0	0	0	43.03023742603727	-43.03023742603727	4.978687097056661	84.7084889533279	85.02131317643591	0	0	43.03023742603727	-43.03023742603727	4.978687097056661	84.7084889533279	85.02131317643152	0	0
26.51999999999952	-2.600978416124145	-2.30672445714236	-6.311647644419377	0	0.9399999999999999	0	13.59445840318341	-5.183387535993976	1.38179846653905	2.254640550014544	0.03935090104672968	0	0	0	-0.9493388415432336	5.626372800796571	17.84520407996411	9.560786631405488	0.1668672057986832	0	0	0	0	0	0	43.03464553928698	-43.03464553928698	4.978769530733468	84.70961646690898	85.02123074276209	0	0	43.03464553928698	-43.03464553928698	4.978769530733468	84.70961646690898	85.02123074275772	0	0
26.53999999999952	-2.733438249510367	-2.221033058247826	-3.922213896667627	0	0.9399999999999999	0	12.30731563381425	-3.564608869278155	4.96399422836768	4.040822978308655	0.07052566546172943	0	0	0	-0.9088613557083698	5.308819189841548	18.56865170093729	10.21175470605591	0.1782287420267014	0	0	0	0	0	0	43.03941907856743	-43.03941907856743	4.97885957239143	84.71084804144793	85.0211407011075	0	0	43.03941907856743	-43.03941907856743	4.97885957239143	84.71084804144793	85.02114070110312	0	0
26.55999999999952	-2.730279552944492	-2.220218822342341	-3.920911390767947	0	0.9399999999999999	0	11.30129281399405	-2.50119222988669	7.716680429630468	4.617841139469073	0.080596532217782	0	0	0	-0.7510231925196019	4.920330204622386	16.79552745187272	10.93439733516197	0.1908412352198703	0	0	0	0	0	0	43.04299023925264	-43.04299023925264	4.978928194788823	84.71178664747652	85.02107207871263	0	0	43.04299023925264	-43.04299023925264	4.978928194788823	84.71178664747652	85.02107207870827	0	0
26.57999999999952	-3.037225456976634	-2.166582425566345	0.649354267064313	0	0.9399999999999999	0	10.69461042725402	-2.376725909221368	7.577724859322527	6.498795352190683	0.1134253763090319	0	0	0	-0.6311820259413842	4.520027551054492	19.74824617536291	11.67151938187084	0.2037064419239795	0	0	0	0	0	0	43.04895675519762	-43.04895675519762	4.97903822202228	84.71329158028331	85.02096205148328	0	0	43.04895675519762	-43.04895675519762	4.97903822202228	84.71329158028331	85.02096205147893	0	0
26.59999999999952	-3.16305581274962	-2.21269201017679	2.788240512725142	0	0.9399999999999999	0	10.17809887818459	-2.031847125241301	8.528601408552531	6.499748257884271	0.113442007650846	0	0	0	-0.4986067203777582	4.06228323178993	20.27560329985383	12.31527724993252	0.2149421363072751	0	0	0	0	0	0	43.05308296408134	-43.05308296408134	4.979114426527119	84.71433389190541	85.02088584698127	0	0	43.05308296408134	-43.05308296408134	4.979114426527119	84.71433389190541	85.02088584697695	0	0
26.61999999999952	-3.170136911386236	-2.21302036762617	2.780297487774487	0	0.9399999999999999	0	9.843197365222458	-1.580924366954018	10.49707512164424	6.352853659369313	0.1108782132533648	0	0	0	-0.3375868624126975	3.550464104108446	18.51135903576136	12.9486581441797	0.2259967183311143	0	0	0	0	0	0	43.05550521831253	-43.05550521831253	4.979160205528386	84.71496004934609	85.02084006798174	0	0	43.05550521831253	-43.05550521831253	4.979160205528386	84.71496004934609	85.02084006797745	0	0
26.63999999999952	-3.257717062929718	-2.307129243182286	4.840234285033766	0	0.9399999999999999	0	9.877848004741146	-1.630713271594277	8.522991702428046	7.004858537020482	0.1222578451074405	0	0	0	-0.1617528470595123	2.952325406995851	18.88079559586676	13.46698058733315	0.2350431515511232	0	0	0	0	0	0	43.06305414177742	-43.06305414177742	4.97929889802437	84.71685706023167	85.02070137549087	0	0	43.06305414177742	-43.06305414177742	4.97929889802437	84.71685706023167	85.02070137548662	0	0
26.65999999999952	-3.148107461068263	-2.4262434497689	6.70671278598127	0	0.9399999999999999	0	9.603178365048171	-1.365662399040609	8.261839128381284	7.252228289258807	0.1265752617538419	0	0	0	-0.1550483039199583	2.189434513276703	18.93463354892918	13.81199168395959	0.241064731143171	0	0	0	0	0	0	43.06738894927624	-43.06738894927624	4.979377839151876	84.71793680242718	85.0206224343663	0	0	43.06738894927624	-43.06738894927624	4.979377839151876	84.71793680242718	85.02062243436207	0	0
26.67999999999952	-3.086580696894816	-2.524028944285999	8.509330179817566	0	0.9399999999999999	0	8.532506976772147	-0.8362015250012168	7.459800549391502	6.54678833270894	0.114263011836921	0	0	0	-0.008786272111450747	1.548176027677285	19.06323496454978	14.17364359507374	0.2473767477382427	0	0	0	0	0	0	43.07146300357445	-43.07146300357445	4.979453026390058	84.71896520000982	85.02054724713088	0	0	43.07146300357445	-43.07146300357445	4.979453026390058	84.71896520000982	85.02054724712664	0	0
